<svg width="34" height="39" viewBox="0 0 34 39" fill="none" xmlns="http://www.w3.org/2000/svg">
<path d="M2.72163 20.5446V12.3261C2.72163 11.9962 2.72163 11.6663 2.72163 11.3364C2.72163 10.9955 2.72713 10.6546 2.73813 10.3137C2.37524 10.6326 1.97937 10.9075 1.55051 11.1385C1.13264 11.3694 0.692779 11.5233 0.230926 11.6003L0 8.86218C0.307902 8.84019 0.6268 8.76871 0.956695 8.64775C1.29759 8.52679 1.62198 8.38384 1.92989 8.21889C2.23779 8.04295 2.5127 7.8615 2.75462 7.67456C2.63366 7.8725 3.00754 7.47663 2.75462 7.67456L5.9711 5.22803V20.5446H2.72163Z" fill="white"/>
<path d="M12.3546 21.6392H10.9031C10.1773 21.6392 9.59998 21.4247 9.17111 20.9959C8.75324 20.578 8.54431 20.0117 8.54431 19.2969V15.5196C8.54431 14.9148 8.2529 14.6124 7.67009 14.6124H7.53813V12.831H7.67009C8.2529 12.831 8.54431 12.5396 8.54431 11.9567V8.14645C8.54431 7.43168 8.75324 6.86536 9.17111 6.4475C9.59998 6.01863 10.1773 5.8042 10.9031 5.8042H12.3546V7.58563H11.5629C11.222 7.58563 10.98 7.65711 10.8371 7.80007C10.7051 7.93202 10.6391 8.17395 10.6391 8.52583V12.1052C10.6391 13.0069 10.2928 13.5457 9.59998 13.7217C10.2928 13.8976 10.6391 14.4529 10.6391 15.3876V18.9175C10.6391 19.2694 10.7051 19.5113 10.8371 19.6433C10.98 19.7862 11.222 19.8577 11.5629 19.8577H12.3546V21.6392ZM14.774 19V9.74644H12.2339L14.0153 7.28873H17.2648V19H14.774ZM26.6483 16.5423V19H18.5659V18.1588C18.5659 17.8399 18.5989 17.532 18.6649 17.2351C18.7309 16.9272 18.8078 16.6632 18.8958 16.4433C18.9838 16.2124 19.1212 15.976 19.3082 15.734C19.4951 15.4921 19.6546 15.2942 19.7865 15.1402C19.9185 14.9863 20.1164 14.8048 20.3803 14.5959C20.6442 14.376 20.8477 14.2165 20.9906 14.1176C21.1336 14.0076 21.359 13.8481 21.6669 13.6392C21.9748 13.4193 22.1892 13.2653 22.3102 13.1774C23.4868 12.3416 24.0751 11.5939 24.0751 10.9341C24.0751 10.5272 23.9542 10.1973 23.7123 9.94438C23.4813 9.68047 23.1404 9.54851 22.6896 9.54851C22.2167 9.54851 21.8319 9.69146 21.535 9.97737C21.249 10.2633 21.1061 10.6097 21.1061 11.0165H18.6154C18.6154 9.87291 19.0058 8.9327 19.7865 8.19594C20.5783 7.45917 21.5734 7.09079 22.7721 7.09079C23.8277 7.09079 24.7239 7.41519 25.4607 8.06398C26.1975 8.70178 26.5659 9.59799 26.5659 10.7526C26.5659 11.4234 26.4504 12.0227 26.2195 12.5506C25.9885 13.0784 25.7191 13.5017 25.4112 13.8206C25.1033 14.1395 24.6855 14.4969 24.1576 14.8928C24.1356 14.9038 23.9157 15.0468 23.4978 15.3217C23.091 15.5856 22.7776 15.811 22.5576 15.998C22.3377 16.1849 22.1783 16.3663 22.0793 16.5423H26.6483ZM28.7786 21.6392H27.3271V19.8577H28.1188C28.4597 19.8577 28.6961 19.7862 28.8281 19.6433C28.971 19.5113 29.0425 19.2694 29.0425 18.9175V15.3876C29.0425 14.4529 29.3889 13.8976 30.0817 13.7217C29.3889 13.5457 29.0425 13.0069 29.0425 12.1052V8.52583C29.0425 8.17395 28.971 7.93202 28.8281 7.80007C28.6961 7.65711 28.4597 7.58563 28.1188 7.58563H27.3271V5.8042H28.7786C29.5044 5.8042 30.0762 6.01863 30.4941 6.4475C30.9229 6.86536 31.1373 7.43168 31.1373 8.14645V11.9567C31.1373 12.5396 31.4288 12.831 32.0116 12.831H32.1435V14.6124H32.0116C31.4288 14.6124 31.1373 14.9148 31.1373 15.5196V19.2969C31.1373 20.0117 30.9229 20.578 30.4941 20.9959C30.0762 21.4247 29.5044 21.6392 28.7786 21.6392Z" fill="white"/>
<path d="M9.88518 30.5356C9.38901 29.7035 8.63018 29.0609 7.72869 28.7094C6.82721 28.3579 5.83451 28.3176 4.90757 28.5948C3.98063 28.8719 3.17235 29.4508 2.61054 30.2399C2.04873 31.029 1.76546 31.9832 1.8055 32.9517C1.84555 33.9202 2.20664 34.8476 2.83168 35.5874C3.45671 36.3272 4.31001 36.8371 5.25666 37.0365C6.2033 37.2359 7.18927 37.1134 8.05864 36.6883C8.92802 36.2633 9.63119 35.56 10.057 34.6896L8.41025 33.8808C8.16399 34.3842 7.7573 34.7909 7.25448 35.0368C6.75166 35.2826 6.18141 35.3535 5.63389 35.2381C5.08638 35.1228 4.59286 34.8279 4.23136 34.4C3.86986 33.9722 3.66101 33.4357 3.63785 32.8756C3.61469 32.3155 3.77853 31.7636 4.10346 31.3072C4.42839 30.8508 4.89588 30.516 5.43199 30.3557C5.96811 30.1954 6.54225 30.2187 7.06365 30.422C7.58504 30.6253 8.02392 30.997 8.3109 31.4782L9.88518 30.5356Z" fill="#FCFCFC"/>
<circle cx="6.08938" cy="32.7842" r="1.39187" fill="white"/>
<rect x="6.87231" y="32.3491" width="3.74065" height="0.869919" fill="white"/>
<path d="M10.6013 35.4773V30.1951H13.2041C14.1023 30.1951 14.5514 30.6443 14.5514 31.5425V32.4305C14.5514 33.0531 14.337 33.4614 13.9083 33.6553L14.7045 35.2094L14.5514 35.4773H13.4031L12.5304 33.7702H11.9333V35.4773H10.6013ZM11.9333 32.5683H13.1352C13.1913 32.5683 13.2194 32.5402 13.2194 32.4841V31.4812C13.2194 31.4251 13.1913 31.397 13.1352 31.397H11.9333V32.5683ZM15.1282 31.5884L15.2583 31.4047H16.3607L17.1721 34.3673H17.2181L18.0295 31.4047H19.1319L19.262 31.5884L17.6621 37.0084H16.5597L16.4296 36.8246L16.8659 35.4773H16.2841L15.1282 31.5884ZM19.9144 37.0084V31.4047H22.1957C23.0531 31.4047 23.4818 31.8334 23.4818 32.6908V34.1912C23.4818 35.0486 23.0531 35.4773 22.1957 35.4773H21.1928V37.0084H19.9144ZM21.1928 34.3673H22.1038C22.1702 34.3673 22.2033 34.3341 22.2033 34.2678V32.6142C22.2033 32.5479 22.1702 32.5147 22.1038 32.5147H21.1928V34.3673ZM24.4291 34.1912V30.1951H25.7075V31.4047H26.9553V32.5147H25.7075V34.2678C25.7075 34.3341 25.7407 34.3673 25.807 34.3673H27.0319V35.0792L26.496 35.4773H25.7152C24.8578 35.4773 24.4291 35.0486 24.4291 34.1912ZM27.7701 34.1912V32.6908C27.7701 31.8334 28.1988 31.4047 29.0562 31.4047H30.1279C30.9853 31.4047 31.414 31.8334 31.414 32.6908V34.1912C31.414 35.0486 30.9853 35.4773 30.1279 35.4773H29.0562C28.1988 35.4773 27.7701 35.0486 27.7701 34.1912ZM29.0485 34.2678C29.0485 34.3341 29.0817 34.3673 29.148 34.3673H30.0361C30.1024 34.3673 30.1356 34.3341 30.1356 34.2678V32.6142C30.1356 32.5479 30.1024 32.5147 30.0361 32.5147H29.148C29.0817 32.5147 29.0485 32.5479 29.0485 32.6142V34.2678Z" fill="white"/>
</svg>
