<svg width="1603" height="387" viewBox="0 0 1603 387" fill="none" xmlns="http://www.w3.org/2000/svg">
<g opacity="0.3" filter="url(#filter0_dddi_498_131)">
<path fill-rule="evenodd" clip-rule="evenodd" d="M1410.75 310.77C1410.61 311.628 1411.2 312.437 1412.05 312.576C1412.33 312.621 1412.6 312.591 1412.85 312.501C1412.5 312.932 1411.94 313.171 1411.36 313.076C1410.5 312.937 1409.92 312.128 1410.06 311.27C1410.15 310.688 1410.56 310.232 1411.07 310.043C1410.91 310.247 1410.8 310.494 1410.75 310.77Z" fill="#AD98FF"/>
<path fill-rule="evenodd" clip-rule="evenodd" d="M1410.75 310.77C1410.61 311.628 1411.2 312.437 1412.05 312.576C1412.33 312.621 1412.6 312.591 1412.85 312.501C1412.5 312.932 1411.94 313.171 1411.36 313.076C1410.5 312.937 1409.92 312.128 1410.06 311.27C1410.15 310.688 1410.56 310.232 1411.07 310.043C1410.91 310.247 1410.8 310.494 1410.75 310.77Z" fill="#AD98FF"/>
<path fill-rule="evenodd" clip-rule="evenodd" d="M1276.64 195.187C1275.97 195.748 1275.89 196.741 1276.45 197.405C1276.63 197.618 1276.85 197.772 1277.1 197.863C1276.56 197.967 1275.98 197.784 1275.6 197.334C1275.04 196.67 1275.12 195.676 1275.78 195.115C1276.23 194.734 1276.84 194.65 1277.35 194.843C1277.1 194.893 1276.85 195.006 1276.64 195.187Z" fill="#AD98FF"/>
<path fill-rule="evenodd" clip-rule="evenodd" d="M1276.64 195.187C1275.97 195.748 1275.89 196.741 1276.45 197.405C1276.63 197.618 1276.85 197.772 1277.1 197.863C1276.56 197.967 1275.98 197.784 1275.6 197.334C1275.04 196.67 1275.12 195.676 1275.78 195.115C1276.23 194.734 1276.84 194.65 1277.35 194.843C1277.1 194.893 1276.85 195.006 1276.64 195.187Z" fill="#AD98FF"/>
<path fill-rule="evenodd" clip-rule="evenodd" d="M1373.8 190.419C1373.86 191.211 1374.55 191.804 1375.34 191.742C1375.59 191.723 1375.83 191.638 1376.03 191.506C1375.82 191.962 1375.37 192.294 1374.83 192.336C1374.04 192.397 1373.35 191.805 1373.29 191.013C1373.25 190.475 1373.51 189.984 1373.92 189.705C1373.82 189.921 1373.78 190.165 1373.8 190.419Z" fill="#AD98FF"/>
<path fill-rule="evenodd" clip-rule="evenodd" d="M1373.8 190.419C1373.86 191.211 1374.55 191.804 1375.34 191.742C1375.59 191.723 1375.83 191.638 1376.03 191.506C1375.82 191.962 1375.37 192.294 1374.83 192.336C1374.04 192.397 1373.35 191.805 1373.29 191.013C1373.25 190.475 1373.51 189.984 1373.92 189.705C1373.82 189.921 1373.78 190.165 1373.8 190.419Z" fill="#AD98FF"/>
<path fill-rule="evenodd" clip-rule="evenodd" d="M1414.53 331.69C1414.39 332.548 1414.97 333.356 1415.83 333.496C1416.1 333.54 1416.37 333.511 1416.62 333.421C1416.28 333.852 1415.72 334.09 1415.13 333.996C1414.28 333.857 1413.69 333.048 1413.83 332.19C1413.93 331.607 1414.33 331.152 1414.85 330.963C1414.69 331.167 1414.57 331.414 1414.53 331.69Z" fill="#AD98FF"/>
<path fill-rule="evenodd" clip-rule="evenodd" d="M1414.53 331.69C1414.39 332.548 1414.97 333.356 1415.83 333.496C1416.1 333.54 1416.37 333.511 1416.62 333.421C1416.28 333.852 1415.72 334.09 1415.13 333.996C1414.28 333.857 1413.69 333.048 1413.83 332.19C1413.93 331.607 1414.33 331.152 1414.85 330.963C1414.69 331.167 1414.57 331.414 1414.53 331.69Z" fill="#AD98FF"/>
<path fill-rule="evenodd" clip-rule="evenodd" d="M1265.89 213.531C1265.23 214.092 1265.15 215.085 1265.71 215.749C1265.89 215.962 1266.11 216.116 1266.36 216.207C1265.82 216.311 1265.24 216.128 1264.86 215.678C1264.3 215.014 1264.38 214.02 1265.04 213.459C1265.49 213.078 1266.1 212.994 1266.61 213.187C1266.36 213.237 1266.11 213.35 1265.89 213.531Z" fill="#AD98FF"/>
<path fill-rule="evenodd" clip-rule="evenodd" d="M1265.89 213.531C1265.23 214.092 1265.15 215.085 1265.71 215.749C1265.89 215.962 1266.11 216.116 1266.36 216.207C1265.82 216.311 1265.24 216.128 1264.86 215.678C1264.3 215.014 1264.38 214.02 1265.04 213.459C1265.49 213.078 1266.1 212.994 1266.61 213.187C1266.36 213.237 1266.11 213.35 1265.89 213.531Z" fill="#AD98FF"/>
<path fill-rule="evenodd" clip-rule="evenodd" d="M1360.06 197.365C1360.13 198.157 1360.82 198.749 1361.61 198.688C1361.86 198.668 1362.1 198.583 1362.3 198.451C1362.08 198.908 1361.64 199.24 1361.1 199.281C1360.31 199.342 1359.62 198.75 1359.56 197.958C1359.51 197.421 1359.77 196.93 1360.19 196.65C1360.09 196.866 1360.04 197.11 1360.06 197.365Z" fill="#AD98FF"/>
<path fill-rule="evenodd" clip-rule="evenodd" d="M1360.06 197.365C1360.13 198.157 1360.82 198.749 1361.61 198.688C1361.86 198.668 1362.1 198.583 1362.3 198.451C1362.08 198.908 1361.64 199.24 1361.1 199.281C1360.31 199.342 1359.62 198.75 1359.56 197.958C1359.51 197.421 1359.77 196.93 1360.19 196.65C1360.09 196.866 1360.04 197.11 1360.06 197.365Z" fill="#AD98FF"/>
<path fill-rule="evenodd" clip-rule="evenodd" d="M1398.13 335.533C1397.99 336.391 1398.57 337.199 1399.43 337.339C1399.7 337.383 1399.97 337.354 1400.22 337.264C1399.88 337.695 1399.32 337.933 1398.73 337.839C1397.88 337.7 1397.29 336.891 1397.43 336.033C1397.53 335.45 1397.93 334.995 1398.45 334.806C1398.29 335.01 1398.17 335.257 1398.13 335.533Z" fill="#AD98FF"/>
<path fill-rule="evenodd" clip-rule="evenodd" d="M1398.13 335.533C1397.99 336.391 1398.57 337.199 1399.43 337.339C1399.7 337.383 1399.97 337.354 1400.22 337.264C1399.88 337.695 1399.32 337.933 1398.73 337.839C1397.88 337.7 1397.29 336.891 1397.43 336.033C1397.53 335.45 1397.93 334.995 1398.45 334.806C1398.29 335.01 1398.17 335.257 1398.13 335.533Z" fill="#AD98FF"/>
<path fill-rule="evenodd" clip-rule="evenodd" d="M1250.94 205.782C1250.27 206.344 1250.19 207.337 1250.75 208.001C1250.93 208.214 1251.16 208.368 1251.4 208.459C1250.86 208.563 1250.28 208.38 1249.9 207.929C1249.34 207.265 1249.42 206.272 1250.09 205.711C1250.54 205.33 1251.14 205.246 1251.66 205.439C1251.4 205.488 1251.15 205.602 1250.94 205.782Z" fill="#AD98FF"/>
<path fill-rule="evenodd" clip-rule="evenodd" d="M1250.94 205.782C1250.27 206.344 1250.19 207.337 1250.75 208.001C1250.93 208.214 1251.16 208.368 1251.4 208.459C1250.86 208.563 1250.28 208.38 1249.9 207.929C1249.34 207.265 1249.42 206.272 1250.09 205.711C1250.54 205.33 1251.14 205.246 1251.66 205.439C1251.4 205.488 1251.15 205.602 1250.94 205.782Z" fill="#AD98FF"/>
<path fill-rule="evenodd" clip-rule="evenodd" d="M1392.47 262.839C1392.03 263.592 1392.29 264.554 1393.04 264.989C1393.29 265.129 1393.55 265.197 1393.81 265.2C1393.34 265.482 1392.73 265.506 1392.22 265.211C1391.46 264.776 1391.21 263.813 1391.64 263.06C1391.94 262.549 1392.47 262.266 1393.03 262.273C1392.8 262.406 1392.61 262.597 1392.47 262.839Z" fill="#AD98FF"/>
<path fill-rule="evenodd" clip-rule="evenodd" d="M1392.47 262.839C1392.03 263.592 1392.29 264.554 1393.04 264.989C1393.29 265.129 1393.55 265.197 1393.81 265.2C1393.34 265.482 1392.73 265.506 1392.22 265.211C1391.46 264.776 1391.21 263.813 1391.64 263.06C1391.94 262.549 1392.47 262.266 1393.03 262.273C1392.8 262.406 1392.61 262.597 1392.47 262.839Z" fill="#AD98FF"/>
<path fill-rule="evenodd" clip-rule="evenodd" d="M1377.61 210.799C1377.67 211.666 1378.43 212.314 1379.3 212.247C1379.58 212.225 1379.83 212.133 1380.05 211.988C1379.82 212.488 1379.33 212.851 1378.74 212.897C1377.87 212.964 1377.12 212.315 1377.05 211.449C1377 210.86 1377.29 210.323 1377.75 210.017C1377.64 210.253 1377.58 210.52 1377.61 210.799Z" fill="#AD98FF"/>
<path fill-rule="evenodd" clip-rule="evenodd" d="M1377.61 210.799C1377.67 211.666 1378.43 212.314 1379.3 212.247C1379.58 212.225 1379.83 212.133 1380.05 211.988C1379.82 212.488 1379.33 212.851 1378.74 212.897C1377.87 212.964 1377.12 212.315 1377.05 211.449C1377 210.86 1377.29 210.323 1377.75 210.017C1377.64 210.253 1377.58 210.52 1377.61 210.799Z" fill="#AD98FF"/>
<path fill-rule="evenodd" clip-rule="evenodd" d="M1403.48 354.337C1403.34 355.195 1403.92 356.003 1404.78 356.143C1405.05 356.187 1405.33 356.158 1405.57 356.068C1405.23 356.499 1404.67 356.737 1404.09 356.643C1403.23 356.504 1402.64 355.695 1402.78 354.837C1402.88 354.254 1403.28 353.799 1403.8 353.61C1403.64 353.814 1403.52 354.061 1403.48 354.337Z" fill="#AD98FF"/>
<path fill-rule="evenodd" clip-rule="evenodd" d="M1403.48 354.337C1403.34 355.195 1403.92 356.003 1404.78 356.143C1405.05 356.187 1405.33 356.158 1405.57 356.068C1405.23 356.499 1404.67 356.737 1404.09 356.643C1403.23 356.504 1402.64 355.695 1402.78 354.837C1402.88 354.254 1403.28 353.799 1403.8 353.61C1403.64 353.814 1403.52 354.061 1403.48 354.337Z" fill="#AD98FF"/>
<path fill-rule="evenodd" clip-rule="evenodd" d="M1242.77 223.546C1242.11 224.107 1242.02 225.1 1242.59 225.764C1242.77 225.977 1242.99 226.131 1243.24 226.222C1242.69 226.326 1242.11 226.143 1241.73 225.693C1241.17 225.029 1241.26 224.035 1241.92 223.474C1242.37 223.093 1242.97 223.009 1243.49 223.202C1243.23 223.252 1242.98 223.365 1242.77 223.546Z" fill="#AD98FF"/>
<path fill-rule="evenodd" clip-rule="evenodd" d="M1242.77 223.546C1242.11 224.107 1242.02 225.1 1242.59 225.764C1242.77 225.977 1242.99 226.131 1243.24 226.222C1242.69 226.326 1242.11 226.143 1241.73 225.693C1241.17 225.029 1241.26 224.035 1241.92 223.474C1242.37 223.093 1242.97 223.009 1243.49 223.202C1243.23 223.252 1242.98 223.365 1242.77 223.546Z" fill="#AD98FF"/>
<path fill-rule="evenodd" clip-rule="evenodd" d="M1372.43 252.821C1372 253.574 1372.25 254.537 1373.01 254.971C1373.25 255.111 1373.51 255.179 1373.77 255.182C1373.3 255.464 1372.69 255.488 1372.18 255.193C1371.43 254.758 1371.17 253.795 1371.61 253.042C1371.9 252.531 1372.44 252.248 1372.99 252.255C1372.77 252.388 1372.57 252.579 1372.43 252.821Z" fill="#AD98FF"/>
<path fill-rule="evenodd" clip-rule="evenodd" d="M1372.43 252.821C1372 253.574 1372.25 254.537 1373.01 254.971C1373.25 255.111 1373.51 255.179 1373.77 255.182C1373.3 255.464 1372.69 255.488 1372.18 255.193C1371.43 254.758 1371.17 253.795 1371.61 253.042C1371.9 252.531 1372.44 252.248 1372.99 252.255C1372.77 252.388 1372.57 252.579 1372.43 252.821Z" fill="#AD98FF"/>
<path fill-rule="evenodd" clip-rule="evenodd" d="M1355.42 213.862C1355.48 214.729 1356.24 215.377 1357.11 215.31C1357.39 215.289 1357.64 215.196 1357.86 215.051C1357.63 215.551 1357.14 215.914 1356.55 215.96C1355.68 216.027 1354.93 215.379 1354.86 214.512C1354.81 213.924 1355.1 213.386 1355.56 213.08C1355.45 213.317 1355.39 213.584 1355.42 213.862Z" fill="#AD98FF"/>
<path fill-rule="evenodd" clip-rule="evenodd" d="M1355.42 213.862C1355.48 214.729 1356.24 215.377 1357.11 215.31C1357.39 215.289 1357.64 215.196 1357.86 215.051C1357.63 215.551 1357.14 215.914 1356.55 215.96C1355.68 216.027 1354.93 215.379 1354.86 214.512C1354.81 213.924 1355.1 213.386 1355.56 213.08C1355.45 213.317 1355.39 213.584 1355.42 213.862Z" fill="#AD98FF"/>
<path fill-rule="evenodd" clip-rule="evenodd" d="M1343.35 255.24C1343.21 256.098 1343.79 256.907 1344.65 257.046C1344.92 257.091 1345.19 257.061 1345.44 256.972C1345.1 257.403 1344.54 257.641 1343.95 257.546C1343.09 257.407 1342.51 256.598 1342.65 255.74C1342.75 255.158 1343.15 254.702 1343.67 254.513C1343.5 254.717 1343.39 254.964 1343.35 255.24Z" fill="#AD98FF"/>
<path fill-rule="evenodd" clip-rule="evenodd" d="M1343.35 255.24C1343.21 256.098 1343.79 256.907 1344.65 257.046C1344.92 257.091 1345.19 257.061 1345.44 256.972C1345.1 257.403 1344.54 257.641 1343.95 257.546C1343.09 257.407 1342.51 256.598 1342.65 255.74C1342.75 255.158 1343.15 254.702 1343.67 254.513C1343.5 254.717 1343.39 254.964 1343.35 255.24Z" fill="#AD98FF"/>
<path fill-rule="evenodd" clip-rule="evenodd" d="M1428.89 355.409C1428.75 356.267 1429.33 357.076 1430.19 357.215C1430.46 357.26 1430.73 357.23 1430.98 357.14C1430.64 357.572 1430.08 357.81 1429.49 357.715C1428.64 357.576 1428.05 356.767 1428.19 355.909C1428.29 355.327 1428.69 354.871 1429.21 354.682C1429.04 354.886 1428.93 355.133 1428.89 355.409Z" fill="#AD98FF"/>
<path fill-rule="evenodd" clip-rule="evenodd" d="M1428.89 355.409C1428.75 356.267 1429.33 357.076 1430.19 357.215C1430.46 357.26 1430.73 357.23 1430.98 357.14C1430.64 357.572 1430.08 357.81 1429.49 357.715C1428.64 357.576 1428.05 356.767 1428.19 355.909C1428.29 355.327 1428.69 354.871 1429.21 354.682C1429.04 354.886 1428.93 355.133 1428.89 355.409Z" fill="#AD98FF"/>
<path fill-rule="evenodd" clip-rule="evenodd" d="M1329.22 234.904C1328.56 235.466 1328.48 236.459 1329.04 237.123C1329.22 237.336 1329.44 237.49 1329.69 237.581C1329.15 237.685 1328.57 237.502 1328.18 237.051C1327.62 236.387 1327.71 235.394 1328.37 234.833C1328.82 234.452 1329.42 234.368 1329.94 234.561C1329.68 234.61 1329.44 234.724 1329.22 234.904Z" fill="#AD98FF"/>
<path fill-rule="evenodd" clip-rule="evenodd" d="M1329.22 234.904C1328.56 235.466 1328.48 236.459 1329.04 237.123C1329.22 237.336 1329.44 237.49 1329.69 237.581C1329.15 237.685 1328.57 237.502 1328.18 237.051C1327.62 236.387 1327.71 235.394 1328.37 234.833C1328.82 234.452 1329.42 234.368 1329.94 234.561C1329.68 234.61 1329.44 234.724 1329.22 234.904Z" fill="#AD98FF"/>
<path fill-rule="evenodd" clip-rule="evenodd" d="M1430.37 245.162C1430.79 244.404 1430.52 243.444 1429.76 243.019C1429.52 242.882 1429.26 242.817 1429 242.817C1429.47 242.53 1430.07 242.498 1430.59 242.787C1431.35 243.213 1431.62 244.172 1431.19 244.93C1430.9 245.445 1430.37 245.734 1429.82 245.734C1430.04 245.599 1430.23 245.405 1430.37 245.162Z" fill="#AD98FF"/>
<path fill-rule="evenodd" clip-rule="evenodd" d="M1430.37 245.162C1430.79 244.404 1430.52 243.444 1429.76 243.019C1429.52 242.882 1429.26 242.817 1429 242.817C1429.47 242.53 1430.07 242.498 1430.59 242.787C1431.35 243.213 1431.62 244.172 1431.19 244.93C1430.9 245.445 1430.37 245.734 1429.82 245.734C1430.04 245.599 1430.23 245.405 1430.37 245.162Z" fill="#AD98FF"/>
<circle cx="1496.38" cy="240.617" r="0.787081" transform="rotate(135 1496.38 240.617)" fill="#AD98FF"/>
<circle cx="1449.08" cy="246.739" r="0.787081" transform="rotate(135 1449.08 246.739)" fill="#AD98FF"/>
<circle cx="1449.08" cy="246.739" r="0.787081" transform="rotate(135 1449.08 246.739)" fill="#AD98FF"/>
<circle cx="1438.5" cy="317.421" r="0.787081" transform="rotate(135 1438.5 317.421)" fill="#AD98FF"/>
<circle cx="1438.5" cy="317.421" r="0.787081" transform="rotate(135 1438.5 317.421)" fill="#AD98FF"/>
<circle cx="1496.38" cy="240.617" r="0.787081" transform="rotate(135 1496.38 240.617)" fill="#AD98FF"/>
<circle cx="1449.08" cy="246.739" r="0.787081" transform="rotate(135 1449.08 246.739)" fill="#AD98FF"/>
<circle cx="1449.08" cy="246.739" r="0.787081" transform="rotate(135 1449.08 246.739)" fill="#AD98FF"/>
<circle cx="1438.5" cy="317.421" r="0.787081" transform="rotate(135 1438.5 317.421)" fill="#AD98FF"/>
<circle cx="1438.5" cy="317.421" r="0.787081" transform="rotate(135 1438.5 317.421)" fill="#AD98FF"/>
<circle cx="1396.76" cy="173.274" r="0.787081" transform="rotate(135 1396.76 173.274)" fill="#AD98FF"/>
<circle cx="1396.76" cy="173.274" r="0.787081" transform="rotate(135 1396.76 173.274)" fill="#AD98FF"/>
<circle cx="1414.57" cy="214.459" r="0.787081" transform="rotate(135 1414.57 214.459)" fill="#AD98FF"/>
<circle cx="1414.57" cy="214.459" r="0.787081" transform="rotate(135 1414.57 214.459)" fill="#AD98FF"/>
<circle cx="1439.61" cy="287.367" r="0.787081" transform="rotate(135 1439.61 287.367)" fill="#AD98FF"/>
<circle cx="1439.61" cy="287.367" r="0.787081" transform="rotate(135 1439.61 287.367)" fill="#AD98FF"/>
<circle cx="1334.98" cy="207.224" r="0.787081" transform="rotate(135 1334.98 207.224)" fill="#AD98FF"/>
<circle cx="1334.98" cy="207.224" r="0.787081" transform="rotate(135 1334.98 207.224)" fill="#AD98FF"/>
<circle cx="1352.79" cy="239.504" r="0.787081" transform="rotate(135 1352.79 239.504)" fill="#AD98FF"/>
<circle cx="1352.79" cy="239.504" r="0.787081" transform="rotate(135 1352.79 239.504)" fill="#AD98FF"/>
<circle cx="1376.17" cy="235.052" r="0.787081" transform="rotate(135 1376.17 235.052)" fill="#AD98FF"/>
<circle cx="1376.17" cy="235.052" r="0.787081" transform="rotate(135 1376.17 235.052)" fill="#AD98FF"/>
<circle cx="1410.67" cy="255.087" r="0.787081" transform="rotate(135 1410.67 255.087)" fill="#AD98FF"/>
<circle cx="1410.67" cy="255.087" r="0.787081" transform="rotate(135 1410.67 255.087)" fill="#AD98FF"/>
<circle cx="1496.38" cy="240.617" r="0.787081" transform="rotate(135 1496.38 240.617)" fill="#AD98FF"/>
<circle cx="1449.08" cy="246.739" r="0.787081" transform="rotate(135 1449.08 246.739)" fill="#AD98FF"/>
<circle cx="1449.08" cy="246.739" r="0.787081" transform="rotate(135 1449.08 246.739)" fill="#AD98FF"/>
<circle cx="1438.5" cy="317.421" r="0.787081" transform="rotate(135 1438.5 317.421)" fill="#AD98FF"/>
<circle cx="1438.5" cy="317.421" r="0.787081" transform="rotate(135 1438.5 317.421)" fill="#AD98FF"/>
<circle cx="1496.38" cy="240.617" r="0.787081" transform="rotate(135 1496.38 240.617)" fill="#AD98FF"/>
<circle cx="1449.08" cy="246.739" r="0.787081" transform="rotate(135 1449.08 246.739)" fill="#AD98FF"/>
<circle cx="1449.08" cy="246.739" r="0.787081" transform="rotate(135 1449.08 246.739)" fill="#AD98FF"/>
<circle cx="1438.5" cy="317.421" r="0.787081" transform="rotate(135 1438.5 317.421)" fill="#AD98FF"/>
<circle cx="1438.5" cy="317.421" r="0.787081" transform="rotate(135 1438.5 317.421)" fill="#AD98FF"/>
<circle cx="1396.76" cy="173.274" r="0.787081" transform="rotate(135 1396.76 173.274)" fill="#AD98FF"/>
<circle cx="1396.76" cy="173.274" r="0.787081" transform="rotate(135 1396.76 173.274)" fill="#AD98FF"/>
<circle cx="1414.57" cy="214.459" r="0.787081" transform="rotate(135 1414.57 214.459)" fill="#AD98FF"/>
<circle cx="1414.57" cy="214.459" r="0.787081" transform="rotate(135 1414.57 214.459)" fill="#AD98FF"/>
<circle cx="1439.61" cy="287.367" r="0.787081" transform="rotate(135 1439.61 287.367)" fill="#AD98FF"/>
<circle cx="1439.61" cy="287.367" r="0.787081" transform="rotate(135 1439.61 287.367)" fill="#AD98FF"/>
<circle cx="1334.98" cy="207.224" r="0.787081" transform="rotate(135 1334.98 207.224)" fill="#AD98FF"/>
<circle cx="1334.98" cy="207.224" r="0.787081" transform="rotate(135 1334.98 207.224)" fill="#AD98FF"/>
<circle cx="1352.79" cy="239.504" r="0.787081" transform="rotate(135 1352.79 239.504)" fill="#AD98FF"/>
<circle cx="1352.79" cy="239.504" r="0.787081" transform="rotate(135 1352.79 239.504)" fill="#AD98FF"/>
<circle cx="1376.17" cy="235.052" r="0.787081" transform="rotate(135 1376.17 235.052)" fill="#AD98FF"/>
<circle cx="1376.17" cy="235.052" r="0.787081" transform="rotate(135 1376.17 235.052)" fill="#AD98FF"/>
<circle cx="1410.67" cy="255.087" r="0.787081" transform="rotate(135 1410.67 255.087)" fill="#AD98FF"/>
<circle cx="1410.67" cy="255.087" r="0.787081" transform="rotate(135 1410.67 255.087)" fill="#AD98FF"/>
<circle cx="1396.76" cy="242.287" r="0.787081" transform="rotate(135 1396.76 242.287)" fill="#AD98FF"/>
<circle cx="1396.76" cy="242.287" r="0.787081" transform="rotate(135 1396.76 242.287)" fill="#AD98FF"/>
<circle cx="1427.93" cy="266.775" r="0.787081" transform="rotate(135 1427.93 266.775)" fill="#AD98FF"/>
<circle cx="1427.93" cy="266.775" r="0.787081" transform="rotate(135 1427.93 266.775)" fill="#AD98FF"/>
<circle cx="1409.56" cy="279.576" r="0.787081" transform="rotate(135 1409.56 279.576)" fill="#AD98FF"/>
<circle cx="1409.56" cy="279.576" r="0.787081" transform="rotate(135 1409.56 279.576)" fill="#AD98FF"/>
</g>
<g opacity="0.3" filter="url(#filter1_dddi_498_131)">
<path fill-rule="evenodd" clip-rule="evenodd" d="M217.078 117.064C217.914 117.303 218.786 116.821 219.026 115.985C219.103 115.716 219.105 115.444 219.045 115.19C219.433 115.582 219.603 116.166 219.44 116.733C219.2 117.569 218.328 118.052 217.493 117.812C216.926 117.649 216.521 117.195 216.394 116.659C216.578 116.844 216.81 116.987 217.078 117.064Z" fill="#AD98FF"/>
<path fill-rule="evenodd" clip-rule="evenodd" d="M217.078 117.064C217.914 117.303 218.786 116.821 219.026 115.985C219.103 115.716 219.105 115.444 219.045 115.19C219.433 115.582 219.603 116.166 219.44 116.733C219.2 117.569 218.328 118.052 217.493 117.812C216.926 117.649 216.521 117.195 216.394 116.659C216.578 116.844 216.81 116.987 217.078 117.064Z" fill="#AD98FF"/>
<path fill-rule="evenodd" clip-rule="evenodd" d="M86.4284 236.552C86.9071 237.278 87.8835 237.478 88.6092 237C88.8424 236.846 89.0213 236.641 89.1409 236.409C89.1804 236.958 88.9299 237.513 88.4373 237.838C87.7116 238.316 86.7352 238.116 86.2565 237.39C85.9316 236.898 85.9195 236.29 86.1722 235.8C86.191 236.06 86.2747 236.319 86.4284 236.552Z" fill="#AD98FF"/>
<path fill-rule="evenodd" clip-rule="evenodd" d="M86.4284 236.552C86.9071 237.278 87.8835 237.478 88.6092 237C88.8424 236.846 89.0213 236.641 89.1409 236.409C89.1804 236.958 88.9299 237.513 88.4373 237.838C87.7116 238.316 86.7352 238.116 86.2565 237.39C85.9316 236.898 85.9195 236.29 86.1722 235.8C86.191 236.06 86.2747 236.319 86.4284 236.552Z" fill="#AD98FF"/>
<path fill-rule="evenodd" clip-rule="evenodd" d="M93.1987 139.511C93.9922 139.544 94.6622 138.927 94.6951 138.134C94.7057 137.879 94.6492 137.637 94.5414 137.424C94.9697 137.688 95.2466 138.17 95.2243 138.709C95.1914 139.502 94.5214 140.119 93.7278 140.086C93.1892 140.064 92.7321 139.748 92.5043 139.299C92.7071 139.424 92.9438 139.5 93.1987 139.511Z" fill="#AD98FF"/>
<path fill-rule="evenodd" clip-rule="evenodd" d="M93.1987 139.511C93.9922 139.544 94.6622 138.927 94.6951 138.134C94.7057 137.879 94.6492 137.637 94.5414 137.424C94.9697 137.688 95.2466 138.17 95.2243 138.709C95.1914 139.502 94.5214 140.119 93.7278 140.086C93.1892 140.064 92.7321 139.748 92.5043 139.299C92.7071 139.424 92.9438 139.5 93.1987 139.511Z" fill="#AD98FF"/>
<path fill-rule="evenodd" clip-rule="evenodd" d="M238.298 115.793C239.133 116.033 240.005 115.55 240.245 114.715C240.322 114.446 240.325 114.174 240.265 113.92C240.652 114.312 240.823 114.896 240.66 115.463C240.42 116.298 239.548 116.781 238.712 116.542C238.145 116.379 237.74 115.925 237.614 115.389C237.797 115.574 238.029 115.716 238.298 115.793Z" fill="#AD98FF"/>
<path fill-rule="evenodd" clip-rule="evenodd" d="M238.298 115.793C239.133 116.033 240.005 115.55 240.245 114.715C240.322 114.446 240.325 114.174 240.265 113.92C240.652 114.312 240.823 114.896 240.66 115.463C240.42 116.298 239.548 116.781 238.712 116.542C238.145 116.379 237.74 115.925 237.614 115.389C237.797 115.574 238.029 115.716 238.298 115.793Z" fill="#AD98FF"/>
<path fill-rule="evenodd" clip-rule="evenodd" d="M103.372 249.389C103.85 250.115 104.827 250.315 105.553 249.837C105.786 249.683 105.965 249.478 106.084 249.246C106.124 249.795 105.873 250.35 105.381 250.675C104.655 251.153 103.679 250.953 103.2 250.227C102.875 249.735 102.863 249.126 103.116 248.637C103.134 248.897 103.218 249.156 103.372 249.389Z" fill="#AD98FF"/>
<path fill-rule="evenodd" clip-rule="evenodd" d="M103.372 249.389C103.85 250.115 104.827 250.315 105.553 249.837C105.786 249.683 105.965 249.478 106.084 249.246C106.124 249.795 105.873 250.35 105.381 250.675C104.655 251.153 103.679 250.953 103.2 250.227C102.875 249.735 102.863 249.126 103.116 248.637C103.134 248.897 103.218 249.156 103.372 249.389Z" fill="#AD98FF"/>
<path fill-rule="evenodd" clip-rule="evenodd" d="M98.4694 153.968C99.263 154.001 99.9329 153.384 99.9658 152.591C99.9764 152.336 99.92 152.094 99.8121 151.881C100.24 152.145 100.517 152.627 100.495 153.166C100.462 153.959 99.7921 154.576 98.9986 154.543C98.46 154.521 98.0029 154.205 97.7751 153.756C97.9778 153.881 98.2145 153.957 98.4694 153.968Z" fill="#AD98FF"/>
<path fill-rule="evenodd" clip-rule="evenodd" d="M98.4694 153.968C99.263 154.001 99.9329 153.384 99.9658 152.591C99.9764 152.336 99.92 152.094 99.8121 151.881C100.24 152.145 100.517 152.627 100.495 153.166C100.462 153.959 99.7921 154.576 98.9986 154.543C98.46 154.521 98.0029 154.205 97.7751 153.756C97.9778 153.881 98.2145 153.957 98.4694 153.968Z" fill="#AD98FF"/>
<path fill-rule="evenodd" clip-rule="evenodd" d="M240.172 132.533C241.008 132.773 241.879 132.29 242.119 131.454C242.196 131.186 242.199 130.914 242.139 130.66C242.526 131.051 242.697 131.635 242.534 132.202C242.294 133.038 241.422 133.521 240.586 133.281C240.019 133.118 239.615 132.664 239.488 132.128C239.671 132.314 239.904 132.456 240.172 132.533Z" fill="#AD98FF"/>
<path fill-rule="evenodd" clip-rule="evenodd" d="M240.172 132.533C241.008 132.773 241.879 132.29 242.119 131.454C242.196 131.186 242.199 130.914 242.139 130.66C242.526 131.051 242.697 131.635 242.534 132.202C242.294 133.038 241.422 133.521 240.586 133.281C240.019 133.118 239.615 132.664 239.488 132.128C239.671 132.314 239.904 132.456 240.172 132.533Z" fill="#AD98FF"/>
<path fill-rule="evenodd" clip-rule="evenodd" d="M93.9072 263.323C94.3859 264.049 95.3622 264.249 96.088 263.77C96.3211 263.616 96.5 263.411 96.6196 263.18C96.6592 263.729 96.4087 264.283 95.9161 264.608C95.1903 265.087 94.214 264.887 93.7353 264.161C93.4104 263.668 93.3983 263.06 93.651 262.571C93.6697 262.831 93.7534 263.09 93.9072 263.323Z" fill="#AD98FF"/>
<path fill-rule="evenodd" clip-rule="evenodd" d="M93.9072 263.323C94.3859 264.049 95.3622 264.249 96.088 263.77C96.3211 263.616 96.5 263.411 96.6196 263.18C96.6592 263.729 96.4087 264.283 95.9161 264.608C95.1903 265.087 94.214 264.887 93.7353 264.161C93.4104 263.668 93.3983 263.06 93.651 262.571C93.6697 262.831 93.7534 263.09 93.9072 263.323Z" fill="#AD98FF"/>
<path fill-rule="evenodd" clip-rule="evenodd" d="M167.319 129.545C168.016 130.066 169.002 129.924 169.523 129.228C169.69 129.004 169.789 128.75 169.823 128.492C170.046 128.996 169.998 129.602 169.645 130.074C169.124 130.77 168.138 130.913 167.441 130.392C166.969 130.038 166.752 129.47 166.824 128.924C166.929 129.163 167.096 129.378 167.319 129.545Z" fill="#AD98FF"/>
<path fill-rule="evenodd" clip-rule="evenodd" d="M167.319 129.545C168.016 130.066 169.002 129.924 169.523 129.228C169.69 129.004 169.789 128.75 169.823 128.492C170.046 128.996 169.998 129.602 169.645 130.074C169.124 130.77 168.138 130.913 167.441 130.392C166.969 130.038 166.752 129.47 166.824 128.924C166.929 129.163 167.096 129.378 167.319 129.545Z" fill="#AD98FF"/>
<path fill-rule="evenodd" clip-rule="evenodd" d="M113.886 138.14C114.755 138.176 115.488 137.501 115.524 136.633C115.536 136.353 115.474 136.088 115.356 135.856C115.825 136.145 116.128 136.672 116.103 137.262C116.067 138.13 115.334 138.805 114.465 138.769C113.876 138.745 113.375 138.399 113.126 137.908C113.348 138.045 113.607 138.129 113.886 138.14Z" fill="#AD98FF"/>
<path fill-rule="evenodd" clip-rule="evenodd" d="M113.886 138.14C114.755 138.176 115.488 137.501 115.524 136.633C115.536 136.353 115.474 136.088 115.356 135.856C115.825 136.145 116.128 136.672 116.103 137.262C116.067 138.13 115.334 138.805 114.465 138.769C113.876 138.745 113.375 138.399 113.126 137.908C113.348 138.045 113.607 138.129 113.886 138.14Z" fill="#AD98FF"/>
<path fill-rule="evenodd" clip-rule="evenodd" d="M259.477 129.446C260.313 129.686 261.185 129.203 261.425 128.368C261.502 128.099 261.504 127.827 261.444 127.573C261.832 127.965 262.002 128.549 261.839 129.116C261.599 129.951 260.727 130.434 259.892 130.194C259.325 130.032 258.92 129.578 258.793 129.042C258.977 129.227 259.209 129.369 259.477 129.446Z" fill="#AD98FF"/>
<path fill-rule="evenodd" clip-rule="evenodd" d="M259.477 129.446C260.313 129.686 261.185 129.203 261.425 128.368C261.502 128.099 261.504 127.827 261.444 127.573C261.832 127.965 262.002 128.549 261.839 129.116C261.599 129.951 260.727 130.434 259.892 130.194C259.325 130.032 258.92 129.578 258.793 129.042C258.977 129.227 259.209 129.369 259.477 129.446Z" fill="#AD98FF"/>
<path fill-rule="evenodd" clip-rule="evenodd" d="M110.578 273.536C111.057 274.261 112.034 274.462 112.759 273.983C112.992 273.829 113.171 273.624 113.291 273.392C113.33 273.942 113.08 274.496 112.587 274.821C111.862 275.3 110.885 275.099 110.407 274.374C110.082 273.881 110.07 273.273 110.322 272.783C110.341 273.043 110.425 273.302 110.578 273.536Z" fill="#AD98FF"/>
<path fill-rule="evenodd" clip-rule="evenodd" d="M110.578 273.536C111.057 274.261 112.034 274.462 112.759 273.983C112.992 273.829 113.171 273.624 113.291 273.392C113.33 273.942 113.08 274.496 112.587 274.821C111.862 275.3 110.885 275.099 110.407 274.374C110.082 273.881 110.07 273.273 110.322 272.783C110.341 273.043 110.425 273.302 110.578 273.536Z" fill="#AD98FF"/>
<path fill-rule="evenodd" clip-rule="evenodd" d="M155 148.254C155.696 148.775 156.682 148.633 157.203 147.936C157.37 147.713 157.469 147.459 157.503 147.201C157.727 147.704 157.679 148.311 157.325 148.783C156.804 149.479 155.818 149.621 155.122 149.101C154.649 148.747 154.432 148.179 154.504 147.633C154.61 147.871 154.776 148.087 155 148.254Z" fill="#AD98FF"/>
<path fill-rule="evenodd" clip-rule="evenodd" d="M155 148.254C155.696 148.775 156.682 148.633 157.203 147.936C157.37 147.713 157.469 147.459 157.503 147.201C157.727 147.704 157.679 148.311 157.325 148.783C156.804 149.479 155.818 149.621 155.122 149.101C154.649 148.747 154.432 148.179 154.504 147.633C154.61 147.871 154.776 148.087 155 148.254Z" fill="#AD98FF"/>
<path fill-rule="evenodd" clip-rule="evenodd" d="M114.3 160.537C115.169 160.573 115.902 159.898 115.938 159.029C115.95 158.75 115.888 158.485 115.77 158.253C116.239 158.542 116.542 159.069 116.518 159.659C116.482 160.527 115.748 161.202 114.88 161.166C114.29 161.142 113.79 160.796 113.54 160.305C113.762 160.442 114.021 160.525 114.3 160.537Z" fill="#AD98FF"/>
<path fill-rule="evenodd" clip-rule="evenodd" d="M114.3 160.537C115.169 160.573 115.902 159.898 115.938 159.029C115.95 158.75 115.888 158.485 115.77 158.253C116.239 158.542 116.542 159.069 116.518 159.659C116.482 160.527 115.748 161.202 114.88 161.166C114.29 161.142 113.79 160.796 113.54 160.305C113.762 160.442 114.021 160.525 114.3 160.537Z" fill="#AD98FF"/>
<path fill-rule="evenodd" clip-rule="evenodd" d="M153.958 177.422C154.794 177.662 155.665 177.179 155.905 176.344C155.982 176.075 155.985 175.803 155.925 175.549C156.313 175.941 156.483 176.525 156.32 177.092C156.08 177.927 155.208 178.41 154.372 178.17C153.805 178.008 153.401 177.554 153.274 177.018C153.457 177.203 153.69 177.345 153.958 177.422Z" fill="#AD98FF"/>
<path fill-rule="evenodd" clip-rule="evenodd" d="M153.958 177.422C154.794 177.662 155.665 177.179 155.905 176.344C155.982 176.075 155.985 175.803 155.925 175.549C156.313 175.941 156.483 176.525 156.32 177.092C156.08 177.927 155.208 178.41 154.372 178.17C153.805 178.008 153.401 177.554 153.274 177.018C153.457 177.203 153.69 177.345 153.958 177.422Z" fill="#AD98FF"/>
<path fill-rule="evenodd" clip-rule="evenodd" d="M263.551 104.343C264.386 104.583 265.258 104.1 265.498 103.264C265.575 102.996 265.577 102.724 265.518 102.47C265.905 102.862 266.075 103.445 265.912 104.013C265.672 104.848 264.801 105.331 263.965 105.091C263.398 104.928 262.993 104.475 262.867 103.938C263.05 104.124 263.282 104.266 263.551 104.343Z" fill="#AD98FF"/>
<path fill-rule="evenodd" clip-rule="evenodd" d="M263.551 104.343C264.386 104.583 265.258 104.1 265.498 103.264C265.575 102.996 265.577 102.724 265.518 102.47C265.905 102.862 266.075 103.445 265.912 104.013C265.672 104.848 264.801 105.331 263.965 105.091C263.398 104.928 262.993 104.475 262.867 103.938C263.05 104.124 263.282 104.266 263.551 104.343Z" fill="#AD98FF"/>
<path fill-rule="evenodd" clip-rule="evenodd" d="M132.093 189.037C132.572 189.763 133.548 189.963 134.274 189.485C134.507 189.331 134.686 189.126 134.806 188.894C134.845 189.444 134.595 189.998 134.102 190.323C133.376 190.801 132.4 190.601 131.921 189.875C131.597 189.383 131.584 188.775 131.837 188.285C131.856 188.545 131.94 188.804 132.093 189.037Z" fill="#AD98FF"/>
<path fill-rule="evenodd" clip-rule="evenodd" d="M132.093 189.037C132.572 189.763 133.548 189.963 134.274 189.485C134.507 189.331 134.686 189.126 134.806 188.894C134.845 189.444 134.595 189.998 134.102 190.323C133.376 190.801 132.4 190.601 131.921 189.875C131.597 189.383 131.584 188.775 131.837 188.285C131.856 188.545 131.94 188.804 132.093 189.037Z" fill="#AD98FF"/>
<path fill-rule="evenodd" clip-rule="evenodd" d="M154.254 89.8196C153.552 89.3075 152.567 89.4618 152.055 90.1643C151.89 90.39 151.794 90.6449 151.764 90.9038C151.534 90.403 151.575 89.7961 151.922 89.3193C152.434 88.6168 153.419 88.4624 154.122 88.9746C154.598 89.3222 154.823 89.8875 154.757 90.4345C154.649 90.1974 154.48 89.9841 154.254 89.8196Z" fill="#AD98FF"/>
<path fill-rule="evenodd" clip-rule="evenodd" d="M154.254 89.8196C153.552 89.3075 152.567 89.4618 152.055 90.1643C151.89 90.39 151.794 90.6449 151.764 90.9038C151.534 90.403 151.575 89.7961 151.922 89.3193C152.434 88.6168 153.419 88.4624 154.122 88.9746C154.598 89.3222 154.823 89.8875 154.757 90.4345C154.649 90.1974 154.48 89.9841 154.254 89.8196Z" fill="#AD98FF"/>
<circle cx="157.558" cy="23.7302" r="0.787081" transform="rotate(51.7999 157.558 23.7302)" fill="#AD98FF"/>
<circle cx="158.035" cy="71.4291" r="0.787081" transform="rotate(51.7999 158.035 71.4291)" fill="#AD98FF"/>
<circle cx="158.035" cy="71.4291" r="0.787081" transform="rotate(51.7999 158.035 71.4291)" fill="#AD98FF"/>
<circle cx="226.968" cy="90.2981" r="0.787081" transform="rotate(51.7999 226.968 90.2981)" fill="#AD98FF"/>
<circle cx="226.968" cy="90.2981" r="0.787081" transform="rotate(51.7999 226.968 90.2981)" fill="#AD98FF"/>
<circle cx="157.558" cy="23.7302" r="0.787081" transform="rotate(51.7999 157.558 23.7302)" fill="#AD98FF"/>
<circle cx="158.035" cy="71.4291" r="0.787081" transform="rotate(51.7999 158.035 71.4291)" fill="#AD98FF"/>
<circle cx="158.035" cy="71.4291" r="0.787081" transform="rotate(51.7999 158.035 71.4291)" fill="#AD98FF"/>
<circle cx="226.968" cy="90.2981" r="0.787081" transform="rotate(51.7999 226.968 90.2981)" fill="#AD98FF"/>
<circle cx="226.968" cy="90.2981" r="0.787081" transform="rotate(51.7999 226.968 90.2981)" fill="#AD98FF"/>
<circle cx="78.8932" cy="114.679" r="0.787081" transform="rotate(51.7999 78.8932 114.679)" fill="#AD98FF"/>
<circle cx="78.8932" cy="114.679" r="0.787081" transform="rotate(51.7999 78.8932 114.679)" fill="#AD98FF"/>
<circle cx="121.897" cy="101.871" r="0.787081" transform="rotate(51.7999 121.897 101.871)" fill="#AD98FF"/>
<circle cx="121.897" cy="101.871" r="0.787081" transform="rotate(51.7999 121.897 101.871)" fill="#AD98FF"/>
<circle cx="197.258" cy="85.6343" r="0.787081" transform="rotate(51.7999 197.258 85.6343)" fill="#AD98FF"/>
<circle cx="197.258" cy="85.6343" r="0.787081" transform="rotate(51.7999 197.258 85.6343)" fill="#AD98FF"/>
<circle cx="105.289" cy="180.041" r="0.787081" transform="rotate(51.7999 105.289 180.041)" fill="#AD98FF"/>
<circle cx="105.289" cy="180.041" r="0.787081" transform="rotate(51.7999 105.289 180.041)" fill="#AD98FF"/>
<circle cx="139.451" cy="166.178" r="0.787081" transform="rotate(51.7999 139.451 166.178)" fill="#AD98FF"/>
<circle cx="139.451" cy="166.178" r="0.787081" transform="rotate(51.7999 139.451 166.178)" fill="#AD98FF"/>
<circle cx="137.798" cy="142.441" r="0.787081" transform="rotate(51.7999 137.798 142.441)" fill="#AD98FF"/>
<circle cx="137.798" cy="142.441" r="0.787081" transform="rotate(51.7999 137.798 142.441)" fill="#AD98FF"/>
<circle cx="161.778" cy="110.549" r="0.787081" transform="rotate(51.7999 161.778 110.549)" fill="#AD98FF"/>
<circle cx="161.778" cy="110.549" r="0.787081" transform="rotate(51.7999 161.778 110.549)" fill="#AD98FF"/>
<circle cx="157.558" cy="23.7302" r="0.787081" transform="rotate(51.7999 157.558 23.7302)" fill="#AD98FF"/>
<circle cx="158.035" cy="71.4291" r="0.787081" transform="rotate(51.7999 158.035 71.4291)" fill="#AD98FF"/>
<circle cx="158.035" cy="71.4291" r="0.787081" transform="rotate(51.7999 158.035 71.4291)" fill="#AD98FF"/>
<circle cx="226.968" cy="90.2981" r="0.787081" transform="rotate(51.7999 226.968 90.2981)" fill="#AD98FF"/>
<circle cx="226.968" cy="90.2981" r="0.787081" transform="rotate(51.7999 226.968 90.2981)" fill="#AD98FF"/>
<circle cx="157.558" cy="23.7302" r="0.787081" transform="rotate(51.7999 157.558 23.7302)" fill="#AD98FF"/>
<circle cx="158.035" cy="71.4291" r="0.787081" transform="rotate(51.7999 158.035 71.4291)" fill="#AD98FF"/>
<circle cx="158.035" cy="71.4291" r="0.787081" transform="rotate(51.7999 158.035 71.4291)" fill="#AD98FF"/>
<circle cx="226.968" cy="90.2981" r="0.787081" transform="rotate(51.7999 226.968 90.2981)" fill="#AD98FF"/>
<circle cx="226.968" cy="90.2981" r="0.787081" transform="rotate(51.7999 226.968 90.2981)" fill="#AD98FF"/>
<circle cx="78.8932" cy="114.679" r="0.787081" transform="rotate(51.7999 78.8932 114.679)" fill="#AD98FF"/>
<circle cx="78.8932" cy="114.679" r="0.787081" transform="rotate(51.7999 78.8932 114.679)" fill="#AD98FF"/>
<circle cx="121.897" cy="101.871" r="0.787081" transform="rotate(51.7999 121.897 101.871)" fill="#AD98FF"/>
<circle cx="121.897" cy="101.871" r="0.787081" transform="rotate(51.7999 121.897 101.871)" fill="#AD98FF"/>
<circle cx="197.258" cy="85.6343" r="0.787081" transform="rotate(51.7999 197.258 85.6343)" fill="#AD98FF"/>
<circle cx="197.258" cy="85.6343" r="0.787081" transform="rotate(51.7999 197.258 85.6343)" fill="#AD98FF"/>
<circle cx="105.289" cy="180.041" r="0.787081" transform="rotate(51.7999 105.289 180.041)" fill="#AD98FF"/>
<circle cx="105.289" cy="180.041" r="0.787081" transform="rotate(51.7999 105.289 180.041)" fill="#AD98FF"/>
<circle cx="139.451" cy="166.178" r="0.787081" transform="rotate(51.7999 139.451 166.178)" fill="#AD98FF"/>
<circle cx="139.451" cy="166.178" r="0.787081" transform="rotate(51.7999 139.451 166.178)" fill="#AD98FF"/>
<circle cx="137.798" cy="142.441" r="0.787081" transform="rotate(51.7999 137.798 142.441)" fill="#AD98FF"/>
<circle cx="137.798" cy="142.441" r="0.787081" transform="rotate(51.7999 137.798 142.441)" fill="#AD98FF"/>
<circle cx="161.778" cy="110.549" r="0.787081" transform="rotate(51.7999 161.778 110.549)" fill="#AD98FF"/>
<circle cx="161.778" cy="110.549" r="0.787081" transform="rotate(51.7999 161.778 110.549)" fill="#AD98FF"/>
<circle cx="147.42" cy="122.85" r="0.787081" transform="rotate(51.7999 147.42 122.85)" fill="#AD98FF"/>
<circle cx="147.42" cy="122.85" r="0.787081" transform="rotate(51.7999 147.42 122.85)" fill="#AD98FF"/>
<circle cx="175.426" cy="94.8015" r="0.787081" transform="rotate(51.7999 175.426 94.8015)" fill="#AD98FF"/>
<circle cx="175.426" cy="94.8015" r="0.787081" transform="rotate(51.7999 175.426 94.8015)" fill="#AD98FF"/>
<circle cx="185.962" cy="114.554" r="0.787081" transform="rotate(51.7999 185.962 114.554)" fill="#AD98FF"/>
<circle cx="185.962" cy="114.554" r="0.787081" transform="rotate(51.7999 185.962 114.554)" fill="#AD98FF"/>
</g>
<g opacity="0.3" filter="url(#filter2_dddi_498_131)">
<path fill-rule="evenodd" clip-rule="evenodd" d="M1531.08 117.064C1531.91 117.303 1532.79 116.821 1533.03 115.985C1533.1 115.716 1533.11 115.444 1533.05 115.19C1533.43 115.582 1533.6 116.166 1533.44 116.733C1533.2 117.569 1532.33 118.052 1531.49 117.812C1530.93 117.649 1530.52 117.195 1530.39 116.659C1530.58 116.844 1530.81 116.987 1531.08 117.064Z" fill="#AD98FF"/>
<path fill-rule="evenodd" clip-rule="evenodd" d="M1531.08 117.064C1531.91 117.303 1532.79 116.821 1533.03 115.985C1533.1 115.716 1533.11 115.444 1533.05 115.19C1533.43 115.582 1533.6 116.166 1533.44 116.733C1533.2 117.569 1532.33 118.052 1531.49 117.812C1530.93 117.649 1530.52 117.195 1530.39 116.659C1530.58 116.844 1530.81 116.987 1531.08 117.064Z" fill="#AD98FF"/>
<path fill-rule="evenodd" clip-rule="evenodd" d="M1400.43 236.552C1400.91 237.278 1401.88 237.478 1402.61 237C1402.84 236.846 1403.02 236.641 1403.14 236.409C1403.18 236.958 1402.93 237.513 1402.44 237.838C1401.71 238.316 1400.74 238.116 1400.26 237.39C1399.93 236.898 1399.92 236.29 1400.17 235.8C1400.19 236.06 1400.27 236.319 1400.43 236.552Z" fill="#AD98FF"/>
<path fill-rule="evenodd" clip-rule="evenodd" d="M1400.43 236.552C1400.91 237.278 1401.88 237.478 1402.61 237C1402.84 236.846 1403.02 236.641 1403.14 236.409C1403.18 236.958 1402.93 237.513 1402.44 237.838C1401.71 238.316 1400.74 238.116 1400.26 237.39C1399.93 236.898 1399.92 236.29 1400.17 235.8C1400.19 236.06 1400.27 236.319 1400.43 236.552Z" fill="#AD98FF"/>
<path fill-rule="evenodd" clip-rule="evenodd" d="M1407.2 139.511C1407.99 139.544 1408.66 138.927 1408.7 138.134C1408.71 137.879 1408.65 137.637 1408.54 137.424C1408.97 137.688 1409.25 138.17 1409.22 138.709C1409.19 139.502 1408.52 140.119 1407.73 140.086C1407.19 140.064 1406.73 139.748 1406.5 139.299C1406.71 139.424 1406.94 139.5 1407.2 139.511Z" fill="#AD98FF"/>
<path fill-rule="evenodd" clip-rule="evenodd" d="M1407.2 139.511C1407.99 139.544 1408.66 138.927 1408.7 138.134C1408.71 137.879 1408.65 137.637 1408.54 137.424C1408.97 137.688 1409.25 138.17 1409.22 138.709C1409.19 139.502 1408.52 140.119 1407.73 140.086C1407.19 140.064 1406.73 139.748 1406.5 139.299C1406.71 139.424 1406.94 139.5 1407.2 139.511Z" fill="#AD98FF"/>
<path fill-rule="evenodd" clip-rule="evenodd" d="M1552.3 115.793C1553.13 116.033 1554.01 115.55 1554.25 114.715C1554.32 114.446 1554.32 114.174 1554.26 113.92C1554.65 114.312 1554.82 114.896 1554.66 115.463C1554.42 116.298 1553.55 116.781 1552.71 116.542C1552.15 116.379 1551.74 115.925 1551.61 115.389C1551.8 115.574 1552.03 115.716 1552.3 115.793Z" fill="#AD98FF"/>
<path fill-rule="evenodd" clip-rule="evenodd" d="M1552.3 115.793C1553.13 116.033 1554.01 115.55 1554.25 114.715C1554.32 114.446 1554.32 114.174 1554.26 113.92C1554.65 114.312 1554.82 114.896 1554.66 115.463C1554.42 116.298 1553.55 116.781 1552.71 116.542C1552.15 116.379 1551.74 115.925 1551.61 115.389C1551.8 115.574 1552.03 115.716 1552.3 115.793Z" fill="#AD98FF"/>
<path fill-rule="evenodd" clip-rule="evenodd" d="M1417.37 249.389C1417.85 250.115 1418.83 250.315 1419.55 249.837C1419.79 249.683 1419.96 249.478 1420.08 249.246C1420.12 249.795 1419.87 250.35 1419.38 250.675C1418.65 251.153 1417.68 250.953 1417.2 250.227C1416.87 249.735 1416.86 249.126 1417.12 248.637C1417.13 248.897 1417.22 249.156 1417.37 249.389Z" fill="#AD98FF"/>
<path fill-rule="evenodd" clip-rule="evenodd" d="M1417.37 249.389C1417.85 250.115 1418.83 250.315 1419.55 249.837C1419.79 249.683 1419.96 249.478 1420.08 249.246C1420.12 249.795 1419.87 250.35 1419.38 250.675C1418.65 251.153 1417.68 250.953 1417.2 250.227C1416.87 249.735 1416.86 249.126 1417.12 248.637C1417.13 248.897 1417.22 249.156 1417.37 249.389Z" fill="#AD98FF"/>
<path fill-rule="evenodd" clip-rule="evenodd" d="M1412.47 153.968C1413.26 154.001 1413.93 153.384 1413.97 152.591C1413.98 152.336 1413.92 152.094 1413.81 151.881C1414.24 152.145 1414.52 152.627 1414.5 153.166C1414.46 153.959 1413.79 154.576 1413 154.543C1412.46 154.521 1412 154.205 1411.78 153.756C1411.98 153.881 1412.21 153.957 1412.47 153.968Z" fill="#AD98FF"/>
<path fill-rule="evenodd" clip-rule="evenodd" d="M1412.47 153.968C1413.26 154.001 1413.93 153.384 1413.97 152.591C1413.98 152.336 1413.92 152.094 1413.81 151.881C1414.24 152.145 1414.52 152.627 1414.5 153.166C1414.46 153.959 1413.79 154.576 1413 154.543C1412.46 154.521 1412 154.205 1411.78 153.756C1411.98 153.881 1412.21 153.957 1412.47 153.968Z" fill="#AD98FF"/>
<path fill-rule="evenodd" clip-rule="evenodd" d="M1554.17 132.533C1555.01 132.773 1555.88 132.29 1556.12 131.454C1556.2 131.186 1556.2 130.914 1556.14 130.66C1556.53 131.051 1556.7 131.635 1556.53 132.202C1556.29 133.038 1555.42 133.521 1554.59 133.281C1554.02 133.118 1553.61 132.664 1553.49 132.128C1553.67 132.314 1553.9 132.456 1554.17 132.533Z" fill="#AD98FF"/>
<path fill-rule="evenodd" clip-rule="evenodd" d="M1554.17 132.533C1555.01 132.773 1555.88 132.29 1556.12 131.454C1556.2 131.186 1556.2 130.914 1556.14 130.66C1556.53 131.051 1556.7 131.635 1556.53 132.202C1556.29 133.038 1555.42 133.521 1554.59 133.281C1554.02 133.118 1553.61 132.664 1553.49 132.128C1553.67 132.314 1553.9 132.456 1554.17 132.533Z" fill="#AD98FF"/>
<path fill-rule="evenodd" clip-rule="evenodd" d="M1407.91 263.323C1408.39 264.049 1409.36 264.249 1410.09 263.77C1410.32 263.616 1410.5 263.411 1410.62 263.18C1410.66 263.729 1410.41 264.283 1409.92 264.608C1409.19 265.087 1408.21 264.887 1407.74 264.161C1407.41 263.668 1407.4 263.06 1407.65 262.571C1407.67 262.831 1407.75 263.09 1407.91 263.323Z" fill="#AD98FF"/>
<path fill-rule="evenodd" clip-rule="evenodd" d="M1407.91 263.323C1408.39 264.049 1409.36 264.249 1410.09 263.77C1410.32 263.616 1410.5 263.411 1410.62 263.18C1410.66 263.729 1410.41 264.283 1409.92 264.608C1409.19 265.087 1408.21 264.887 1407.74 264.161C1407.41 263.668 1407.4 263.06 1407.65 262.571C1407.67 262.831 1407.75 263.09 1407.91 263.323Z" fill="#AD98FF"/>
<path fill-rule="evenodd" clip-rule="evenodd" d="M1481.32 129.545C1482.02 130.066 1483 129.924 1483.52 129.228C1483.69 129.004 1483.79 128.75 1483.82 128.492C1484.05 128.996 1484 129.602 1483.64 130.074C1483.12 130.77 1482.14 130.913 1481.44 130.392C1480.97 130.038 1480.75 129.47 1480.82 128.924C1480.93 129.163 1481.1 129.378 1481.32 129.545Z" fill="#AD98FF"/>
<path fill-rule="evenodd" clip-rule="evenodd" d="M1481.32 129.545C1482.02 130.066 1483 129.924 1483.52 129.228C1483.69 129.004 1483.79 128.75 1483.82 128.492C1484.05 128.996 1484 129.602 1483.64 130.074C1483.12 130.77 1482.14 130.913 1481.44 130.392C1480.97 130.038 1480.75 129.47 1480.82 128.924C1480.93 129.163 1481.1 129.378 1481.32 129.545Z" fill="#AD98FF"/>
<path fill-rule="evenodd" clip-rule="evenodd" d="M1427.89 138.14C1428.75 138.176 1429.49 137.501 1429.52 136.633C1429.54 136.353 1429.47 136.088 1429.36 135.856C1429.82 136.145 1430.13 136.672 1430.1 137.262C1430.07 138.13 1429.33 138.805 1428.47 138.769C1427.88 138.745 1427.38 138.399 1427.13 137.908C1427.35 138.045 1427.61 138.129 1427.89 138.14Z" fill="#AD98FF"/>
<path fill-rule="evenodd" clip-rule="evenodd" d="M1427.89 138.14C1428.75 138.176 1429.49 137.501 1429.52 136.633C1429.54 136.353 1429.47 136.088 1429.36 135.856C1429.82 136.145 1430.13 136.672 1430.1 137.262C1430.07 138.13 1429.33 138.805 1428.47 138.769C1427.88 138.745 1427.38 138.399 1427.13 137.908C1427.35 138.045 1427.61 138.129 1427.89 138.14Z" fill="#AD98FF"/>
<path fill-rule="evenodd" clip-rule="evenodd" d="M1573.48 129.446C1574.31 129.686 1575.18 129.203 1575.42 128.368C1575.5 128.099 1575.5 127.827 1575.44 127.573C1575.83 127.965 1576 128.549 1575.84 129.116C1575.6 129.951 1574.73 130.434 1573.89 130.194C1573.32 130.032 1572.92 129.578 1572.79 129.042C1572.98 129.227 1573.21 129.369 1573.48 129.446Z" fill="#AD98FF"/>
<path fill-rule="evenodd" clip-rule="evenodd" d="M1573.48 129.446C1574.31 129.686 1575.18 129.203 1575.42 128.368C1575.5 128.099 1575.5 127.827 1575.44 127.573C1575.83 127.965 1576 128.549 1575.84 129.116C1575.6 129.951 1574.73 130.434 1573.89 130.194C1573.32 130.032 1572.92 129.578 1572.79 129.042C1572.98 129.227 1573.21 129.369 1573.48 129.446Z" fill="#AD98FF"/>
<path fill-rule="evenodd" clip-rule="evenodd" d="M1424.58 273.536C1425.06 274.261 1426.03 274.462 1426.76 273.983C1426.99 273.829 1427.17 273.624 1427.29 273.392C1427.33 273.942 1427.08 274.496 1426.59 274.821C1425.86 275.3 1424.89 275.099 1424.41 274.374C1424.08 273.881 1424.07 273.273 1424.32 272.783C1424.34 273.043 1424.42 273.302 1424.58 273.536Z" fill="#AD98FF"/>
<path fill-rule="evenodd" clip-rule="evenodd" d="M1424.58 273.536C1425.06 274.261 1426.03 274.462 1426.76 273.983C1426.99 273.829 1427.17 273.624 1427.29 273.392C1427.33 273.942 1427.08 274.496 1426.59 274.821C1425.86 275.3 1424.89 275.099 1424.41 274.374C1424.08 273.881 1424.07 273.273 1424.32 272.783C1424.34 273.043 1424.42 273.302 1424.58 273.536Z" fill="#AD98FF"/>
<path fill-rule="evenodd" clip-rule="evenodd" d="M1469 148.254C1469.7 148.775 1470.68 148.633 1471.2 147.936C1471.37 147.713 1471.47 147.459 1471.5 147.201C1471.73 147.704 1471.68 148.311 1471.33 148.783C1470.8 149.479 1469.82 149.621 1469.12 149.101C1468.65 148.747 1468.43 148.179 1468.5 147.633C1468.61 147.871 1468.78 148.087 1469 148.254Z" fill="#AD98FF"/>
<path fill-rule="evenodd" clip-rule="evenodd" d="M1469 148.254C1469.7 148.775 1470.68 148.633 1471.2 147.936C1471.37 147.713 1471.47 147.459 1471.5 147.201C1471.73 147.704 1471.68 148.311 1471.33 148.783C1470.8 149.479 1469.82 149.621 1469.12 149.101C1468.65 148.747 1468.43 148.179 1468.5 147.633C1468.61 147.871 1468.78 148.087 1469 148.254Z" fill="#AD98FF"/>
<path fill-rule="evenodd" clip-rule="evenodd" d="M1428.3 160.537C1429.17 160.573 1429.9 159.898 1429.94 159.029C1429.95 158.75 1429.89 158.485 1429.77 158.253C1430.24 158.542 1430.54 159.069 1430.52 159.659C1430.48 160.527 1429.75 161.202 1428.88 161.166C1428.29 161.142 1427.79 160.796 1427.54 160.305C1427.76 160.442 1428.02 160.525 1428.3 160.537Z" fill="#AD98FF"/>
<path fill-rule="evenodd" clip-rule="evenodd" d="M1428.3 160.537C1429.17 160.573 1429.9 159.898 1429.94 159.029C1429.95 158.75 1429.89 158.485 1429.77 158.253C1430.24 158.542 1430.54 159.069 1430.52 159.659C1430.48 160.527 1429.75 161.202 1428.88 161.166C1428.29 161.142 1427.79 160.796 1427.54 160.305C1427.76 160.442 1428.02 160.525 1428.3 160.537Z" fill="#AD98FF"/>
<path fill-rule="evenodd" clip-rule="evenodd" d="M1467.96 177.422C1468.79 177.662 1469.67 177.179 1469.91 176.344C1469.98 176.075 1469.98 175.803 1469.93 175.549C1470.31 175.941 1470.48 176.525 1470.32 177.092C1470.08 177.927 1469.21 178.41 1468.37 178.17C1467.81 178.008 1467.4 177.554 1467.27 177.018C1467.46 177.203 1467.69 177.345 1467.96 177.422Z" fill="#AD98FF"/>
<path fill-rule="evenodd" clip-rule="evenodd" d="M1467.96 177.422C1468.79 177.662 1469.67 177.179 1469.91 176.344C1469.98 176.075 1469.98 175.803 1469.93 175.549C1470.31 175.941 1470.48 176.525 1470.32 177.092C1470.08 177.927 1469.21 178.41 1468.37 178.17C1467.81 178.008 1467.4 177.554 1467.27 177.018C1467.46 177.203 1467.69 177.345 1467.96 177.422Z" fill="#AD98FF"/>
<path fill-rule="evenodd" clip-rule="evenodd" d="M1577.55 104.343C1578.39 104.583 1579.26 104.1 1579.5 103.264C1579.57 102.996 1579.58 102.724 1579.52 102.47C1579.91 102.862 1580.08 103.445 1579.91 104.013C1579.67 104.848 1578.8 105.331 1577.96 105.091C1577.4 104.928 1576.99 104.475 1576.87 103.938C1577.05 104.124 1577.28 104.266 1577.55 104.343Z" fill="#AD98FF"/>
<path fill-rule="evenodd" clip-rule="evenodd" d="M1577.55 104.343C1578.39 104.583 1579.26 104.1 1579.5 103.264C1579.57 102.996 1579.58 102.724 1579.52 102.47C1579.91 102.862 1580.08 103.445 1579.91 104.013C1579.67 104.848 1578.8 105.331 1577.96 105.091C1577.4 104.928 1576.99 104.475 1576.87 103.938C1577.05 104.124 1577.28 104.266 1577.55 104.343Z" fill="#AD98FF"/>
<path fill-rule="evenodd" clip-rule="evenodd" d="M1446.09 189.037C1446.57 189.763 1447.55 189.963 1448.27 189.485C1448.51 189.331 1448.69 189.126 1448.81 188.894C1448.85 189.444 1448.59 189.998 1448.1 190.323C1447.38 190.801 1446.4 190.601 1445.92 189.875C1445.6 189.383 1445.58 188.775 1445.84 188.285C1445.86 188.545 1445.94 188.804 1446.09 189.037Z" fill="#AD98FF"/>
<path fill-rule="evenodd" clip-rule="evenodd" d="M1446.09 189.037C1446.57 189.763 1447.55 189.963 1448.27 189.485C1448.51 189.331 1448.69 189.126 1448.81 188.894C1448.85 189.444 1448.59 189.998 1448.1 190.323C1447.38 190.801 1446.4 190.601 1445.92 189.875C1445.6 189.383 1445.58 188.775 1445.84 188.285C1445.86 188.545 1445.94 188.804 1446.09 189.037Z" fill="#AD98FF"/>
<path fill-rule="evenodd" clip-rule="evenodd" d="M1468.25 89.8196C1467.55 89.3075 1466.57 89.4618 1466.05 90.1643C1465.89 90.39 1465.79 90.6449 1465.76 90.9038C1465.53 90.403 1465.57 89.7961 1465.92 89.3193C1466.43 88.6168 1467.42 88.4624 1468.12 88.9746C1468.6 89.3222 1468.82 89.8875 1468.76 90.4345C1468.65 90.1974 1468.48 89.9841 1468.25 89.8196Z" fill="#AD98FF"/>
<path fill-rule="evenodd" clip-rule="evenodd" d="M1468.25 89.8196C1467.55 89.3075 1466.57 89.4618 1466.05 90.1643C1465.89 90.39 1465.79 90.6449 1465.76 90.9038C1465.53 90.403 1465.57 89.7961 1465.92 89.3193C1466.43 88.6168 1467.42 88.4624 1468.12 88.9746C1468.6 89.3222 1468.82 89.8875 1468.76 90.4345C1468.65 90.1974 1468.48 89.9841 1468.25 89.8196Z" fill="#AD98FF"/>
<circle cx="1471.56" cy="23.7302" r="0.787081" transform="rotate(51.7999 1471.56 23.7302)" fill="#AD98FF"/>
<circle cx="1472.04" cy="71.4291" r="0.787081" transform="rotate(51.7999 1472.04 71.4291)" fill="#AD98FF"/>
<circle cx="1472.04" cy="71.4291" r="0.787081" transform="rotate(51.7999 1472.04 71.4291)" fill="#AD98FF"/>
<circle cx="1540.97" cy="90.2981" r="0.787081" transform="rotate(51.7999 1540.97 90.2981)" fill="#AD98FF"/>
<circle cx="1540.97" cy="90.2981" r="0.787081" transform="rotate(51.7999 1540.97 90.2981)" fill="#AD98FF"/>
<circle cx="1471.56" cy="23.7302" r="0.787081" transform="rotate(51.7999 1471.56 23.7302)" fill="#AD98FF"/>
<circle cx="1472.04" cy="71.4291" r="0.787081" transform="rotate(51.7999 1472.04 71.4291)" fill="#AD98FF"/>
<circle cx="1472.04" cy="71.4291" r="0.787081" transform="rotate(51.7999 1472.04 71.4291)" fill="#AD98FF"/>
<circle cx="1540.97" cy="90.2981" r="0.787081" transform="rotate(51.7999 1540.97 90.2981)" fill="#AD98FF"/>
<circle cx="1540.97" cy="90.2981" r="0.787081" transform="rotate(51.7999 1540.97 90.2981)" fill="#AD98FF"/>
<circle cx="1392.89" cy="114.679" r="0.787081" transform="rotate(51.7999 1392.89 114.679)" fill="#AD98FF"/>
<circle cx="1392.89" cy="114.679" r="0.787081" transform="rotate(51.7999 1392.89 114.679)" fill="#AD98FF"/>
<circle cx="1435.9" cy="101.871" r="0.787081" transform="rotate(51.7999 1435.9 101.871)" fill="#AD98FF"/>
<circle cx="1435.9" cy="101.871" r="0.787081" transform="rotate(51.7999 1435.9 101.871)" fill="#AD98FF"/>
<circle cx="1511.26" cy="85.6343" r="0.787081" transform="rotate(51.7999 1511.26 85.6343)" fill="#AD98FF"/>
<circle cx="1511.26" cy="85.6343" r="0.787081" transform="rotate(51.7999 1511.26 85.6343)" fill="#AD98FF"/>
<circle cx="1419.29" cy="180.041" r="0.787081" transform="rotate(51.7999 1419.29 180.041)" fill="#AD98FF"/>
<circle cx="1419.29" cy="180.041" r="0.787081" transform="rotate(51.7999 1419.29 180.041)" fill="#AD98FF"/>
<circle cx="1453.45" cy="166.178" r="0.787081" transform="rotate(51.7999 1453.45 166.178)" fill="#AD98FF"/>
<circle cx="1453.45" cy="166.178" r="0.787081" transform="rotate(51.7999 1453.45 166.178)" fill="#AD98FF"/>
<circle cx="1451.8" cy="142.441" r="0.787081" transform="rotate(51.7999 1451.8 142.441)" fill="#AD98FF"/>
<circle cx="1451.8" cy="142.441" r="0.787081" transform="rotate(51.7999 1451.8 142.441)" fill="#AD98FF"/>
<circle cx="1475.78" cy="110.549" r="0.787081" transform="rotate(51.7999 1475.78 110.549)" fill="#AD98FF"/>
<circle cx="1475.78" cy="110.549" r="0.787081" transform="rotate(51.7999 1475.78 110.549)" fill="#AD98FF"/>
<circle cx="1471.56" cy="23.7302" r="0.787081" transform="rotate(51.7999 1471.56 23.7302)" fill="#AD98FF"/>
<circle cx="1472.04" cy="71.4291" r="0.787081" transform="rotate(51.7999 1472.04 71.4291)" fill="#AD98FF"/>
<circle cx="1472.04" cy="71.4291" r="0.787081" transform="rotate(51.7999 1472.04 71.4291)" fill="#AD98FF"/>
<circle cx="1540.97" cy="90.2981" r="0.787081" transform="rotate(51.7999 1540.97 90.2981)" fill="#AD98FF"/>
<circle cx="1540.97" cy="90.2981" r="0.787081" transform="rotate(51.7999 1540.97 90.2981)" fill="#AD98FF"/>
<circle cx="1471.56" cy="23.7302" r="0.787081" transform="rotate(51.7999 1471.56 23.7302)" fill="#AD98FF"/>
<circle cx="1472.04" cy="71.4291" r="0.787081" transform="rotate(51.7999 1472.04 71.4291)" fill="#AD98FF"/>
<circle cx="1472.04" cy="71.4291" r="0.787081" transform="rotate(51.7999 1472.04 71.4291)" fill="#AD98FF"/>
<circle cx="1540.97" cy="90.2981" r="0.787081" transform="rotate(51.7999 1540.97 90.2981)" fill="#AD98FF"/>
<circle cx="1540.97" cy="90.2981" r="0.787081" transform="rotate(51.7999 1540.97 90.2981)" fill="#AD98FF"/>
<circle cx="1392.89" cy="114.679" r="0.787081" transform="rotate(51.7999 1392.89 114.679)" fill="#AD98FF"/>
<circle cx="1392.89" cy="114.679" r="0.787081" transform="rotate(51.7999 1392.89 114.679)" fill="#AD98FF"/>
<circle cx="1435.9" cy="101.871" r="0.787081" transform="rotate(51.7999 1435.9 101.871)" fill="#AD98FF"/>
<circle cx="1435.9" cy="101.871" r="0.787081" transform="rotate(51.7999 1435.9 101.871)" fill="#AD98FF"/>
<circle cx="1511.26" cy="85.6343" r="0.787081" transform="rotate(51.7999 1511.26 85.6343)" fill="#AD98FF"/>
<circle cx="1511.26" cy="85.6343" r="0.787081" transform="rotate(51.7999 1511.26 85.6343)" fill="#AD98FF"/>
<circle cx="1419.29" cy="180.041" r="0.787081" transform="rotate(51.7999 1419.29 180.041)" fill="#AD98FF"/>
<circle cx="1419.29" cy="180.041" r="0.787081" transform="rotate(51.7999 1419.29 180.041)" fill="#AD98FF"/>
<circle cx="1453.45" cy="166.178" r="0.787081" transform="rotate(51.7999 1453.45 166.178)" fill="#AD98FF"/>
<circle cx="1453.45" cy="166.178" r="0.787081" transform="rotate(51.7999 1453.45 166.178)" fill="#AD98FF"/>
<circle cx="1451.8" cy="142.441" r="0.787081" transform="rotate(51.7999 1451.8 142.441)" fill="#AD98FF"/>
<circle cx="1451.8" cy="142.441" r="0.787081" transform="rotate(51.7999 1451.8 142.441)" fill="#AD98FF"/>
<circle cx="1475.78" cy="110.549" r="0.787081" transform="rotate(51.7999 1475.78 110.549)" fill="#AD98FF"/>
<circle cx="1475.78" cy="110.549" r="0.787081" transform="rotate(51.7999 1475.78 110.549)" fill="#AD98FF"/>
<circle cx="1461.42" cy="122.85" r="0.787081" transform="rotate(51.7999 1461.42 122.85)" fill="#AD98FF"/>
<circle cx="1461.42" cy="122.85" r="0.787081" transform="rotate(51.7999 1461.42 122.85)" fill="#AD98FF"/>
<circle cx="1489.43" cy="94.8015" r="0.787081" transform="rotate(51.7999 1489.43 94.8015)" fill="#AD98FF"/>
<circle cx="1489.43" cy="94.8015" r="0.787081" transform="rotate(51.7999 1489.43 94.8015)" fill="#AD98FF"/>
<circle cx="1499.96" cy="114.554" r="0.787081" transform="rotate(51.7999 1499.96 114.554)" fill="#AD98FF"/>
<circle cx="1499.96" cy="114.554" r="0.787081" transform="rotate(51.7999 1499.96 114.554)" fill="#AD98FF"/>
</g>
<defs>
<filter id="filter0_dddi_498_131" x="1236.36" y="171.487" width="265.808" height="195.248" filterUnits="userSpaceOnUse" color-interpolation-filters="sRGB">
<feFlood flood-opacity="0" result="BackgroundImageFix"/>
<feColorMatrix in="SourceAlpha" type="matrix" values="0 0 0 0 0 0 0 0 0 0 0 0 0 0 0 0 0 0 127 0" result="hardAlpha"/>
<feOffset dy="4"/>
<feGaussianBlur stdDeviation="2.5"/>
<feComposite in2="hardAlpha" operator="out"/>
<feColorMatrix type="matrix" values="0 0 0 0 0.584667 0 0 0 0 0.480833 0 0 0 0 1 0 0 0 1 0"/>
<feBlend mode="normal" in2="BackgroundImageFix" result="effect1_dropShadow_498_131"/>
<feColorMatrix in="SourceAlpha" type="matrix" values="0 0 0 0 0 0 0 0 0 0 0 0 0 0 0 0 0 0 127 0" result="hardAlpha"/>
<feOffset dy="4"/>
<feGaussianBlur stdDeviation="2"/>
<feComposite in2="hardAlpha" operator="out"/>
<feColorMatrix type="matrix" values="0 0 0 0 0 0 0 0 0 0 0 0 0 0 0 0 0 0 0.25 0"/>
<feBlend mode="normal" in2="effect1_dropShadow_498_131" result="effect2_dropShadow_498_131"/>
<feColorMatrix in="SourceAlpha" type="matrix" values="0 0 0 0 0 0 0 0 0 0 0 0 0 0 0 0 0 0 127 0" result="hardAlpha"/>
<feOffset dy="4"/>
<feGaussianBlur stdDeviation="2"/>
<feComposite in2="hardAlpha" operator="out"/>
<feColorMatrix type="matrix" values="0 0 0 0 0 0 0 0 0 0 0 0 0 0 0 0 0 0 0.25 0"/>
<feBlend mode="normal" in2="effect2_dropShadow_498_131" result="effect3_dropShadow_498_131"/>
<feBlend mode="normal" in="SourceGraphic" in2="effect3_dropShadow_498_131" result="shape"/>
<feColorMatrix in="SourceAlpha" type="matrix" values="0 0 0 0 0 0 0 0 0 0 0 0 0 0 0 0 0 0 127 0" result="hardAlpha"/>
<feOffset dy="4"/>
<feGaussianBlur stdDeviation="9"/>
<feComposite in2="hardAlpha" operator="arithmetic" k2="-1" k3="1"/>
<feColorMatrix type="matrix" values="0 0 0 0 0.754667 0 0 0 0 0.693333 0 0 0 0 1 0 0 0 1 0"/>
<feBlend mode="normal" in2="shape" result="effect4_innerShadow_498_131"/>
</filter>
<filter id="filter1_dddi_498_131" x="73.1061" y="21.9431" width="197.868" height="262.138" filterUnits="userSpaceOnUse" color-interpolation-filters="sRGB">
<feFlood flood-opacity="0" result="BackgroundImageFix"/>
<feColorMatrix in="SourceAlpha" type="matrix" values="0 0 0 0 0 0 0 0 0 0 0 0 0 0 0 0 0 0 127 0" result="hardAlpha"/>
<feOffset dy="4"/>
<feGaussianBlur stdDeviation="2.5"/>
<feComposite in2="hardAlpha" operator="out"/>
<feColorMatrix type="matrix" values="0 0 0 0 0.584667 0 0 0 0 0.480833 0 0 0 0 1 0 0 0 1 0"/>
<feBlend mode="normal" in2="BackgroundImageFix" result="effect1_dropShadow_498_131"/>
<feColorMatrix in="SourceAlpha" type="matrix" values="0 0 0 0 0 0 0 0 0 0 0 0 0 0 0 0 0 0 127 0" result="hardAlpha"/>
<feOffset dy="4"/>
<feGaussianBlur stdDeviation="2"/>
<feComposite in2="hardAlpha" operator="out"/>
<feColorMatrix type="matrix" values="0 0 0 0 0 0 0 0 0 0 0 0 0 0 0 0 0 0 0.25 0"/>
<feBlend mode="normal" in2="effect1_dropShadow_498_131" result="effect2_dropShadow_498_131"/>
<feColorMatrix in="SourceAlpha" type="matrix" values="0 0 0 0 0 0 0 0 0 0 0 0 0 0 0 0 0 0 127 0" result="hardAlpha"/>
<feOffset dy="4"/>
<feGaussianBlur stdDeviation="2"/>
<feComposite in2="hardAlpha" operator="out"/>
<feColorMatrix type="matrix" values="0 0 0 0 0 0 0 0 0 0 0 0 0 0 0 0 0 0 0.25 0"/>
<feBlend mode="normal" in2="effect2_dropShadow_498_131" result="effect3_dropShadow_498_131"/>
<feBlend mode="normal" in="SourceGraphic" in2="effect3_dropShadow_498_131" result="shape"/>
<feColorMatrix in="SourceAlpha" type="matrix" values="0 0 0 0 0 0 0 0 0 0 0 0 0 0 0 0 0 0 127 0" result="hardAlpha"/>
<feOffset dy="4"/>
<feGaussianBlur stdDeviation="9"/>
<feComposite in2="hardAlpha" operator="arithmetic" k2="-1" k3="1"/>
<feColorMatrix type="matrix" values="0 0 0 0 0.754667 0 0 0 0 0.693333 0 0 0 0 1 0 0 0 1 0"/>
<feBlend mode="normal" in2="shape" result="effect4_innerShadow_498_131"/>
</filter>
<filter id="filter2_dddi_498_131" x="1387.11" y="21.9431" width="197.868" height="262.138" filterUnits="userSpaceOnUse" color-interpolation-filters="sRGB">
<feFlood flood-opacity="0" result="BackgroundImageFix"/>
<feColorMatrix in="SourceAlpha" type="matrix" values="0 0 0 0 0 0 0 0 0 0 0 0 0 0 0 0 0 0 127 0" result="hardAlpha"/>
<feOffset dy="4"/>
<feGaussianBlur stdDeviation="2.5"/>
<feComposite in2="hardAlpha" operator="out"/>
<feColorMatrix type="matrix" values="0 0 0 0 0.584667 0 0 0 0 0.480833 0 0 0 0 1 0 0 0 1 0"/>
<feBlend mode="normal" in2="BackgroundImageFix" result="effect1_dropShadow_498_131"/>
<feColorMatrix in="SourceAlpha" type="matrix" values="0 0 0 0 0 0 0 0 0 0 0 0 0 0 0 0 0 0 127 0" result="hardAlpha"/>
<feOffset dy="4"/>
<feGaussianBlur stdDeviation="2"/>
<feComposite in2="hardAlpha" operator="out"/>
<feColorMatrix type="matrix" values="0 0 0 0 0 0 0 0 0 0 0 0 0 0 0 0 0 0 0.25 0"/>
<feBlend mode="normal" in2="effect1_dropShadow_498_131" result="effect2_dropShadow_498_131"/>
<feColorMatrix in="SourceAlpha" type="matrix" values="0 0 0 0 0 0 0 0 0 0 0 0 0 0 0 0 0 0 127 0" result="hardAlpha"/>
<feOffset dy="4"/>
<feGaussianBlur stdDeviation="2"/>
<feComposite in2="hardAlpha" operator="out"/>
<feColorMatrix type="matrix" values="0 0 0 0 0 0 0 0 0 0 0 0 0 0 0 0 0 0 0.25 0"/>
<feBlend mode="normal" in2="effect2_dropShadow_498_131" result="effect3_dropShadow_498_131"/>
<feBlend mode="normal" in="SourceGraphic" in2="effect3_dropShadow_498_131" result="shape"/>
<feColorMatrix in="SourceAlpha" type="matrix" values="0 0 0 0 0 0 0 0 0 0 0 0 0 0 0 0 0 0 127 0" result="hardAlpha"/>
<feOffset dy="4"/>
<feGaussianBlur stdDeviation="9"/>
<feComposite in2="hardAlpha" operator="arithmetic" k2="-1" k3="1"/>
<feColorMatrix type="matrix" values="0 0 0 0 0.754667 0 0 0 0 0.693333 0 0 0 0 1 0 0 0 1 0"/>
<feBlend mode="normal" in2="shape" result="effect4_innerShadow_498_131"/>
</filter>
</defs>
</svg>
