<svg width="48" height="48" viewBox="0 0 48 48" fill="none" xmlns="http://www.w3.org/2000/svg">
<rect width="48" height="48" rx="8" fill="#1C1C1C"/>
<path d="M24.6777 31.957C24.9524 32.0209 24.9776 32.3807 24.71 32.4699L23.13 32.9899C19.16 34.2699 17.07 33.1999 15.78 29.2299L14.5 25.2799C13.22 21.3099 14.28 19.2099 18.25 17.9299L18.774 17.7564C19.1768 17.623 19.5689 18.027 19.4545 18.4357C19.3978 18.6383 19.3433 18.8497 19.29 19.0699L18.31 23.2599C17.21 27.9699 18.82 30.5699 23.53 31.6899L24.6777 31.957Z" fill="#FCFCFC"/>
<path d="M29.1701 15.21L27.5001 14.82C24.1601 14.03 22.1701 14.68 21.0001 17.1C20.7001 17.71 20.4601 18.45 20.2601 19.3L19.2801 23.49C18.3001 27.67 19.5901 29.73 23.7601 30.72L25.4401 31.12C26.0201 31.26 26.5601 31.35 27.0601 31.39C30.1801 31.69 31.8401 30.23 32.6801 26.62L33.6601 22.44C34.6401 18.26 33.3601 16.19 29.1701 15.21ZM27.2901 25.33C27.2001 25.67 26.9001 25.89 26.5601 25.89C26.5001 25.89 26.4401 25.88 26.3701 25.87L23.4601 25.13C23.0601 25.03 22.8201 24.62 22.9201 24.22C23.0201 23.82 23.4301 23.58 23.8301 23.68L26.7401 24.42C27.1501 24.52 27.3901 24.93 27.2901 25.33ZM30.2201 21.95C30.1301 22.29 29.8301 22.51 29.4901 22.51C29.4301 22.51 29.3701 22.5 29.3001 22.49L24.4501 21.26C24.0501 21.16 23.8101 20.75 23.9101 20.35C24.0101 19.95 24.4201 19.71 24.8201 19.81L29.6701 21.04C30.0801 21.13 30.3201 21.54 30.2201 21.95Z" fill="#FCFCFC"/>
</svg>
