<svg width="27" height="37" viewBox="0 0 27 37" fill="none" xmlns="http://www.w3.org/2000/svg">
<path d="M13.2241 0.375C8.44181 0.375 4.53334 4.28346 4.53334 9.06571V13.8524C1.87217 16.239 0.187988 19.6938 0.187988 23.5502C0.187988 30.7505 6.0238 36.5863 13.2241 36.5863C20.4243 36.5863 26.2601 30.7505 26.2601 23.5502C26.2601 19.6938 24.5759 16.239 21.9148 13.8524V9.06571C21.9148 4.46587 18.2704 0.762211 13.7389 0.479673C13.5751 0.413689 13.4006 0.378214 13.2241 0.375ZM13.2241 3.2719C16.4402 3.2719 19.0179 5.8496 19.0179 9.06571V11.8834C17.2711 11.0144 15.3076 10.5142 13.2241 10.5142C11.1405 10.5142 9.17696 11.0144 7.43025 11.8834V9.06571C7.43025 5.8496 10.0079 3.2719 13.2241 3.2719ZM13.2241 20.6533C14.8246 20.6533 16.121 21.9497 16.121 23.5502C16.121 24.6192 15.5343 25.5428 14.6725 26.0454V27.8956C14.6725 28.6951 14.0236 29.344 13.2241 29.344C12.4245 29.344 11.7756 28.6951 11.7756 27.8956V26.0454C10.9138 25.5442 10.3272 24.6206 10.3272 23.5502C10.3272 21.9497 11.6235 20.6533 13.2241 20.6533Z" fill="#636363"/>
</svg>
